<svg width="26" height="27" viewBox="0 0 26 27" fill="none" xmlns="http://www.w3.org/2000/svg">
<path fill-rule="evenodd" clip-rule="evenodd" d="M2 0C0.895 0 0 0.8954 0 2V16.5858C0 18.3676 2.154 19.2599 3.414 18L5.914 15.5H8V19.5C8 20.6046 8.895 21.5 10 21.5H18.181L22.575 25.9623C23.83 27.2373 26 26.3484 26 24.5591V10C26 8.8954 25.105 8 24 8H21V2C21 0.8954 20.105 0 19 0H2ZM19 8V2H2V16.5858L4.5 14.0858C4.875 13.7107 5.384 13.5 5.914 13.5H8V10C8 8.8954 8.895 8 10 8H19ZM10 13.5V10H19V13.5H10ZM10 15.5H19C20.105 15.5 21 14.6046 21 13.5V10H24V24.5591L19.606 20.0968C19.23 19.715 18.717 19.5 18.181 19.5H10V15.5Z" fill="#8E8E93"/>
</svg>
