<svg width="27" height="27" viewBox="0 0 27 27"  xmlns="http://www.w3.org/2000/svg">
<path d="M6.6682 7.25C4.63533 7.25 2.92773 9 2.92773 11.0833C2.92773 13.1667 4.63533 14.9167 6.6682 14.9167C8.70106 14.9167 10.4087 13.1667 10.4087 11.0833C10.4087 9 8.70106 7.25 6.6682 7.25Z" fill="#FF9500"/>
<path d="M15.7752 0C12.9292 0 10.6523 2.33333 10.6523 5.25C10.6523 8.16667 12.9292 10.5 15.7752 10.5C18.6212 10.5 20.898 8.16667 20.898 5.25C20.898 2.33333 18.6212 0 15.7752 0Z" fill="#FF9500"/>
<path d="M23.4999 13.7502C21.6297 12.4168 19.1902 12.3335 16.9134 12.3335C14.9619 12.3335 12.8477 12.5835 11.5467 14.3335C10.9775 15.0835 10.4896 15.8335 10.0017 16.6668C9.5138 16.5002 9.10723 16.4168 8.61934 16.4168H4.55362C2.03287 16.4168 0 18.5002 0 21.0835V21.5835C0 24.1668 2.03287 26.2502 4.55362 26.2502H6.17991H8.61934H18.5397C20.0847 26.2502 21.6297 26.1668 23.012 25.1668C24.3944 24.1668 25.2888 23.1668 25.7767 21.9168C26.9151 19.0002 25.9393 15.5002 23.4999 13.7502Z" fill="#FF9500"/>
</svg>
