<svg width="30" height="27" viewBox="0 0 30 27" fill="orange" xmlns="http://www.w3.org/2000/svg">

<path d="M22.9619 26.25H19.0892C17.7421 26.25 16.5635 25.1844 16.5635 23.791V19.2008H12.7749V23.791C12.7749 25.1025 11.6804 26.25 10.2492 26.25H6.37644C5.02939 26.25 3.85073 25.1844 3.85073 23.791V15.2664H2.41949C1.40921 15.2664 0.483114 14.6926 0.146353 13.709C-0.190409 12.8074 0.0621618 11.7418 0.819875 11.0861L14.0378 0.184426C14.3745 -0.0614754 14.8797 -0.0614754 15.1322 0.184426L28.3501 11.0861C29.1078 11.7418 29.3604 12.7254 29.0236 13.709C28.6869 14.6107 27.7608 15.2664 26.7505 15.2664H25.3193V23.791C25.4035 25.1844 24.309 26.25 22.9619 26.25ZM11.8488 17.4795H17.4054C17.9105 17.4795 18.2473 17.8893 18.2473 18.2992V23.791C18.2473 24.2008 18.584 24.5287 19.005 24.5287H22.8778C23.2987 24.5287 23.6355 24.2008 23.6355 23.791V14.3648C23.6355 13.873 24.0564 13.5451 24.4774 13.5451H26.7505C27.1715 13.5451 27.3398 13.2172 27.3398 13.1352C27.3398 13.0533 27.5082 12.7254 27.1715 12.3975L14.5429 1.98771L1.91435 12.3975C1.57759 12.6434 1.66178 12.9713 1.74597 13.1352C1.74597 13.2172 1.91435 13.5451 2.3353 13.5451H4.60844C5.11358 13.5451 5.45035 13.9549 5.45035 14.3648V23.791C5.45035 24.2008 5.78711 24.5287 6.20806 24.5287H10.0808C10.5018 24.5287 10.8385 24.2008 10.8385 23.791V18.2992C11.0069 17.8893 11.3437 17.4795 11.8488 17.4795Z"
/>
</svg>
