<svg width="25" height="27" viewBox="0 0 25 27" fill="none" xmlns="http://www.w3.org/2000/svg">
<path d="M12.3425 27C13.5274 27 14.4389 26.1319 14.4389 25.0032H10.2461C10.2461 26.1319 11.1576 27 12.3425 27Z" fill="#FF9500"/>
<path d="M23.7362 21.1832C23.4628 20.836 23.2805 20.4019 23.0982 20.0546C22.5513 18.926 22.1867 17.971 21.9133 16.9292C21.6398 15.8006 21.5487 14.5852 21.5487 13.2829C21.5487 12.2411 21.4575 11.1993 21.2752 10.0707C20.5461 6.2508 18.4497 3.47266 15.3506 2.43086C15.2595 2.43086 14.8949 2.34405 14.5303 2.17041C14.1657 2.0836 13.7099 1.99678 13.3454 1.90997C13.3454 1.90997 13.3454 1.90997 13.3454 1.82315V0.868166C13.3454 0.347266 12.8896 0 12.4339 0C11.9781 0 11.5224 0.434083 11.5224 0.868166V1.82315C11.5224 1.82315 11.5224 1.82315 11.5224 1.90997C11.1578 1.99678 10.7021 2.0836 10.3375 2.17041C9.97289 2.25723 9.60831 2.34405 9.51716 2.43086C6.32698 3.47266 4.23058 6.2508 3.59254 10.0707C3.41025 11.1125 3.31908 12.2411 3.31908 13.2829C3.31908 14.5852 3.22794 15.8006 2.9545 16.9292C2.68105 17.8842 2.31647 18.926 1.76959 20.0546C1.58729 20.4019 1.40498 20.836 1.13154 21.1832C0.766948 21.8778 0.311197 22.5723 0.0377536 23.3537C-0.0533944 23.5273 0.0377591 23.7009 0.128907 23.9614V24.0482C0.220055 24.2218 0.493504 24.3955 0.6758 24.4823C1.04039 24.5691 1.49612 24.5691 1.86071 24.5691C2.13416 24.5691 2.40762 24.5691 2.68107 24.5691C2.86336 24.5691 3.13679 24.5691 3.31908 24.5691H12.4339H21.5487C21.731 24.5691 22.0044 24.5691 22.1867 24.5691C22.4602 24.5691 22.7336 24.5691 23.007 24.5691C23.3716 24.5691 23.8274 24.5691 24.192 24.4823C24.4654 24.3955 24.6477 24.3086 24.7388 24.0482V23.9614C24.83 23.7877 24.83 23.6141 24.83 23.3537C24.5566 22.4855 24.1008 21.791 23.7362 21.1832Z" fill="#FF9500"/>
</svg>
